<svg xmlns="http://www.w3.org/2000/svg" viewBox="0 0 349.93 105.47">
    <defs>
        <style>
            .cls-1{fill:#f2f2f2;}.cls-2{fill:#93278f;}.cls-3{fill:#f01378;}.cls-4{fill:#f35910;}.cls-5{fill:#2d8e4b;}.cls-6{fill:#ff7bac;}.cls-7{fill:#00a99d;}
        </style>
    </defs>
    <g id="Layer_2" data-name="Layer 2">
        <g id="Layer_1-2" data-name="Layer 1">
            <path class="cls-1"
                  d="M132.41,80.5a16.2,16.2,0,0,1-6.13,4.79A18.45,18.45,0,0,1,118.59,87a20.66,20.66,0,0,1-7.11-1.21,17.13,17.13,0,0,1-5.79-3.47,16.2,16.2,0,0,1-3.88-5.43,18.36,18.36,0,0,1,0-14.16,16.06,16.06,0,0,1,3.88-5.42,16.82,16.82,0,0,1,5.79-3.47,20.67,20.67,0,0,1,7.11-1.22A16.15,16.15,0,0,1,125,53.81a13.16,13.16,0,0,1,4.86,3.47,15.84,15.84,0,0,1,3.06,5.42A21.92,21.92,0,0,1,134,69.78V73H110.5a8.11,8.11,0,0,0,2.63,4.62,8.26,8.26,0,0,0,9.2.6,11.14,11.14,0,0,0,3-2.86Zm-8.56-14.43a5.88,5.88,0,0,0-1.68-4.38,6,6,0,0,0-4.52-1.82,7.38,7.38,0,0,0-5.16,1.92,6.16,6.16,0,0,0-1.41,2,6.45,6.45,0,0,0-.58,2.32Z"/>
            <path class="cls-1"
                  d="M162.41,61.49h-8.9V72.41a20.55,20.55,0,0,0,.13,2.46,5,5,0,0,0,.61,1.92A3,3,0,0,0,155.7,78a6.46,6.46,0,0,0,2.59.44,18.17,18.17,0,0,0,2.13-.17,3.57,3.57,0,0,0,2-.78V86a15.86,15.86,0,0,1-3.51.81,33.43,33.43,0,0,1-3.57.2,19.42,19.42,0,0,1-4.72-.54,10.6,10.6,0,0,1-3.77-1.72,8,8,0,0,1-2.53-3.07,10.39,10.39,0,0,1-.91-4.58V61.49h-6.47V53.4h6.47V43.69h10.11V53.4h8.9Z"/>
            <path class="cls-1"
                  d="M177.64,35.2V57.85h.14A6,6,0,0,1,178.92,56a8.72,8.72,0,0,1,2-1.68,10.59,10.59,0,0,1,2.69-1.22,11.73,11.73,0,0,1,3.37-.47,14,14,0,0,1,6.2,1.18A9,9,0,0,1,196.82,57,13.22,13.22,0,0,1,198.61,62a37.91,37.91,0,0,1,.47,6.14V86.16H189v-16c0-1,0-1.92-.11-2.93a9.17,9.17,0,0,0-.6-2.8,4.93,4.93,0,0,0-1.55-2.09,4.83,4.83,0,0,0-3-.81,6.25,6.25,0,0,0-3.17.71,4.77,4.77,0,0,0-1.85,1.88,7.82,7.82,0,0,0-.85,2.67,23.75,23.75,0,0,0-.2,3.1V86.16H167.53v-51Z"/>
            <path class="cls-1"
                  d="M237.23,80.5a16.15,16.15,0,0,1-6.14,4.79A18.4,18.4,0,0,1,223.41,87a20.58,20.58,0,0,1-7.11-1.21,17.18,17.18,0,0,1-5.8-3.47,16.48,16.48,0,0,1-3.88-5.43,18.48,18.48,0,0,1,0-14.16,16.34,16.34,0,0,1,3.88-5.42,16.86,16.86,0,0,1,5.8-3.47,20.58,20.58,0,0,1,7.11-1.22,16.15,16.15,0,0,1,6.37,1.22,13,13,0,0,1,4.85,3.47,15.7,15.7,0,0,1,3.07,5.42,21.92,21.92,0,0,1,1.08,7.08V73H215.32A8.05,8.05,0,0,0,218,77.57a8.26,8.26,0,0,0,9.2.6,11.14,11.14,0,0,0,3-2.86Zm-8.56-14.43A5.89,5.89,0,0,0,227,61.69a6,6,0,0,0-4.51-1.82,7.38,7.38,0,0,0-5.16,1.92,6.19,6.19,0,0,0-1.42,2,6.65,6.65,0,0,0-.57,2.32Z"/>
            <path class="cls-1"
                  d="M244.91,53.4H255v5.26h.14A12.47,12.47,0,0,1,259,54.11a9.73,9.73,0,0,1,5.6-1.52c.58,0,1.16,0,1.75.07a8.83,8.83,0,0,1,1.62.27v9.23a15.58,15.58,0,0,0-2.13-.5,13.9,13.9,0,0,0-2.19-.17,10.71,10.71,0,0,0-4.58.81,6.06,6.06,0,0,0-2.6,2.26A8.64,8.64,0,0,0,255.29,68a33.77,33.77,0,0,0-.27,4.45V86.16H244.91Z"/>
            <path class="cls-1"
                  d="M271.67,43.09a5.87,5.87,0,1,1,11.73,0,5.87,5.87,0,0,1-11.73,0Zm.81,10.31h10.11V86.16H272.48Z"/>
            <path class="cls-1"
                  d="M308.41,63a7.16,7.16,0,0,0-5.87-2.76,5.56,5.56,0,0,0-2.49.6A2.15,2.15,0,0,0,298.84,63a1.88,1.88,0,0,0,1.24,1.79,16.73,16.73,0,0,0,3.17,1l4.11.94a15.58,15.58,0,0,1,4.12,1.59,9.23,9.23,0,0,1,3.16,2.93,8.69,8.69,0,0,1,1.25,5,9.19,9.19,0,0,1-1.38,5.23,10.56,10.56,0,0,1-3.54,3.3,15.14,15.14,0,0,1-4.85,1.75,28.7,28.7,0,0,1-5.33.51,25.83,25.83,0,0,1-6.94-1,13,13,0,0,1-5.93-3.47l6.13-6.81a10.27,10.27,0,0,0,3.14,2.67,8.5,8.5,0,0,0,4,.91,9.33,9.33,0,0,0,3.17-.51,1.86,1.86,0,0,0,1.41-1.85A2.07,2.07,0,0,0,304.53,75a13.82,13.82,0,0,0-3.16-1.07l-4.12-1a16.83,16.83,0,0,1-4.11-1.51A8.63,8.63,0,0,1,290,68.6a8.75,8.75,0,0,1-1.24-4.95,10,10,0,0,1,1.18-5,10.35,10.35,0,0,1,3.1-3.44,13.45,13.45,0,0,1,4.41-2,20.58,20.58,0,0,1,5.06-.64,23.79,23.79,0,0,1,6.54.95,12.12,12.12,0,0,1,5.59,3.37Z"/>
            <path class="cls-1"
                  d="M343.26,64a5.76,5.76,0,0,0-2.09-1.78,6.19,6.19,0,0,0-2.9-.71,7.74,7.74,0,0,0-6,2.29,8.51,8.51,0,0,0-2.12,6,8.51,8.51,0,0,0,2.12,6,7.74,7.74,0,0,0,6,2.29,5.42,5.42,0,0,0,2.9-.74,8.92,8.92,0,0,0,2.09-1.75l6.67,7a12.85,12.85,0,0,1-5.56,3.4,20.94,20.94,0,0,1-6.1,1,20.58,20.58,0,0,1-7.11-1.21,17.18,17.18,0,0,1-5.8-3.47,16.31,16.31,0,0,1-3.87-5.43,18.36,18.36,0,0,1,0-14.16,16.17,16.17,0,0,1,3.87-5.42,16.86,16.86,0,0,1,5.8-3.47,20.58,20.58,0,0,1,7.11-1.22,20.94,20.94,0,0,1,6.1,1,13,13,0,0,1,5.56,3.4Z"/>
            <path class="cls-1"
                  d="M208.93,96.39a1.84,1.84,0,0,0-.84-.59,3.22,3.22,0,0,0-1-.18,2.93,2.93,0,0,0-.58.06,1.9,1.9,0,0,0-.56.21,1.08,1.08,0,0,0-.42.37,1,1,0,0,0,.23,1.36,3.81,3.81,0,0,0,1,.48l1.29.39a5.31,5.31,0,0,1,1.29.56,2.8,2.8,0,0,1,1.39,2.59,3.73,3.73,0,0,1-.37,1.69,3.28,3.28,0,0,1-1,1.2,4.08,4.08,0,0,1-1.43.71,6.44,6.44,0,0,1-1.72.23,6.21,6.21,0,0,1-2.1-.34,5.34,5.34,0,0,1-1.81-1.12l1.82-2a2.65,2.65,0,0,0,1,.82,2.85,2.85,0,0,0,1.24.29A2.72,2.72,0,0,0,207,103a2.12,2.12,0,0,0,.58-.22,1.36,1.36,0,0,0,.41-.38,1,1,0,0,0,.15-.54,1,1,0,0,0-.4-.83,4,4,0,0,0-1-.52c-.4-.14-.84-.28-1.31-.42a6.52,6.52,0,0,1-1.32-.58,3.27,3.27,0,0,1-1-1,2.74,2.74,0,0,1-.4-1.56,3.49,3.49,0,0,1,.37-1.65,3.62,3.62,0,0,1,1-1.18,4.36,4.36,0,0,1,1.43-.71,5.68,5.68,0,0,1,1.65-.24,6.4,6.4,0,0,1,1.91.28,4.55,4.55,0,0,1,1.66.93Z"/>
            <path class="cls-1" d="M227.18,95.81h-3.32V93.55h9.2v2.26h-3.32v9.36h-2.56Z"/>
            <path class="cls-1" d="M249,93.55h2.12l5.06,11.62h-2.89l-1-2.46h-4.52l-1,2.46H244Zm1,3.38-1.41,3.61h2.84Z"/>
            <path class="cls-1"
                  d="M269.76,93.55h2.56v4.83l4.51-4.83h3.36L275,99l5.62,6.22h-3.58l-4.73-5.51v5.51h-2.56Z"/>
            <path class="cls-1" d="M293.8,93.55h2.57v11.62H293.8Z"/>
            <path class="cls-1" d="M311,93.55h3.48l4.94,8.08h0V93.55H322v11.62h-3.35l-5.08-8.27h0v8.27H311Z"/>
            <path class="cls-1"
                  d="M347.25,104.35a9.1,9.1,0,0,1-2.37.86,12.29,12.29,0,0,1-2.51.26,7,7,0,0,1-2.51-.43,5.68,5.68,0,0,1-2-1.22,5.44,5.44,0,0,1-1.3-1.93,7,7,0,0,1,0-5.06,5.53,5.53,0,0,1,1.3-1.93,5.68,5.68,0,0,1,2-1.22,7,7,0,0,1,2.51-.43,9.08,9.08,0,0,1,2.57.34A5,5,0,0,1,347,94.74l-1.8,2a3.56,3.56,0,0,0-1.19-.83,4.29,4.29,0,0,0-1.64-.27,3.86,3.86,0,0,0-1.48.27,3.44,3.44,0,0,0-1.15.78,3.65,3.65,0,0,0-.73,1.2,4.6,4.6,0,0,0,0,3,3.6,3.6,0,0,0,.73,1.19,3.44,3.44,0,0,0,1.15.78,3.86,3.86,0,0,0,1.48.28,5.15,5.15,0,0,0,1.45-.19,6,6,0,0,0,1-.39v-1.89H342.7V98.28h4.55Z"/>
            <polygon class="cls-2" points="58.54 23.44 3.54 12.34 46.43 52.69 58.54 23.44"/>
            <polygon class="cls-3" points="76 30.44 93.17 56.29 104.78 27.44 76 30.44"/>
            <polygon class="cls-4" points="104.78 27.44 99.12 41.44 120.16 41.44 104.78 27.44"/>
            <polygon class="cls-4" points="46.43 52.69 64.21 12.52 14.36 0 46.43 52.69"/>
            <polygon class="cls-5" points="44.71 56.11 93.17 56.29 54.98 76.22 44.71 56.11"/>
            <polygon class="cls-6" points="44.71 56.11 0 90.44 54.98 76.22 44.71 56.11"/>
            <polygon class="cls-7" points="44.71 56.11 64.21 12.52 93.17 56.29 44.71 56.11"/>
        </g>
    </g>
</svg>
